{
  "asset": {
    "version": "2.0",
    "generator": "Zephyr multi-mesh example"
  },
  "scene": 0,
  "scenes": [
    {
      "nodes": [0, 1]
    }
  ],
  "nodes": [
    {
      "name": "LeftTriangle",
      "mesh": 0,
      "translation": [-1.25, -0.5, 0]
    },
    {
      "name": "RightTriangle",
      "mesh": 1,
      "translation": [0.25, -0.5, 0]
    }
  ],
  "meshes": [
    {
      "name": "LeftMesh",
      "primitives": [
        {
          "attributes": {
            "POSITION": 1,
            "NORMAL": 2
          },
          "indices": 0
        }
      ]
    },
    {
      "name": "RightMesh",
      "primitives": [
        {
          "attributes": {
            "POSITION": 1,
            "NORMAL": 2
          },
          "indices": 0
        }
      ]
    }
  ],
  "accessors": [
    {
      "bufferView": 0,
      "componentType": 5123,
      "count": 3,
      "type": "SCALAR",
      "max": [2],
      "min": [0]
    },
    {
      "bufferView": 1,
      "componentType": 5126,
      "count": 3,
      "type": "VEC3",
      "max": [1, 1, 0],
      "min": [0, 0, 0]
    },
    {
      "bufferView": 2,
      "componentType": 5126,
      "count": 3,
      "type": "VEC3"
    }
  ],
  "bufferViews": [
    {
      "buffer": 0,
      "byteOffset": 900,
      "byteLength": 6,
      "target": 34963
    },
    {
      "buffer": 0,
      "byteOffset": 908,
      "byteLength": 36,
      "target": 34962
    },
    {
      "buffer": 0,
      "byteOffset": 944,
      "byteLength": 36,
      "target": 34962
    }
  ],
  "buffers": [
    {
      "uri": "triangle.glb",
      "byteLength": 980
    }
  ]
}
